/* XPM */
static char *result[] = {
/* columns rows colors chars-per-pixel */
"64 64 157 2 ",
"   c #640100",
".  c #680601",
"X  c #6C0B02",
"o  c #6C0C0D",
"O  c #660E02",
"+  c #671704",
"@  c #6F1101",
"#  c #671805",
"$  c #681F06",
"%  c #6A1008",
"&  c #711300",
"*  c #761900",
"=  c #791D00",
"-  c #741608",
";  c #741809",
":  c #692206",
">  c #7D2301",
",  c #6C3E0C",
"<  c #6B340A",
"1  c #713E0C",
"2  c #6F2211",
"3  c #7E2710",
"4  c #722917",
"5  c #7F2810",
"6  c #742E19",
"7  c #76351C",
"8  c #7D2828",
"9  c #744619",
"0  c #6F5210",
"q  c #705C12",
"w  c #716915",
"e  c #766F1C",
"r  c #757D1A",
"t  c #7D5228",
"y  c #802701",
"u  c #832B01",
"i  c #873101",
"p  c #893401",
"a  c #8E3B01",
"s  c #832E13",
"d  c #8F3F16",
"f  c #8F3F1A",
"g  c #802C2C",
"h  c #833130",
"j  c #8B3F3F",
"k  c #944302",
"l  c #974802",
"z  c #9A4C02",
"x  c #9E5202",
"c  c #90411B",
"v  c #984D1F",
"b  c #A05502",
"n  c #A55C03",
"m  c #857813",
"M  c #AB6503",
"N  c #AF6903",
"B  c #B16C03",
"V  c #B57303",
"C  c #B87703",
"Z  c #BB7C04",
"A  c #825B31",
"S  c #866336",
"D  c #827C30",
"F  c #A66329",
"G  c #AB692B",
"H  c #B67B32",
"J  c #8C4141",
"K  c #904747",
"L  c #944E4E",
"P  c #A76742",
"I  c #74821A",
"U  c #768D1C",
"Y  c #77931E",
"T  c #77981E",
"R  c #78A01F",
"E  c #78A020",
"W  c #7AAC22",
"Q  c #7BB224",
"!  c #7DB228",
"~  c #BF8104",
"^  c #B1980D",
"/  c #A8BF19",
"(  c #A2BD1A",
")  c #819E2E",
"_  c #BF8420",
"`  c #BE8737",
"'  c #81B422",
"]  c #81B82E",
"[  c #87BD39",
"{  c #84B633",
"}  c #C18404",
"|  c #C58A04",
" . c #C88E04",
".. c #C08308",
"X. c #C3880C",
"o. c #CE9605",
"O. c #CF9805",
"+. c #D29B05",
"@. c #D6A205",
"#. c #D9A505",
"$. c #DDAB05",
"%. c #CAB91A",
"&. c #E0AF05",
"*. c #E2B305",
"=. c #E7B906",
"-. c #E9BD06",
";. c #E1B314",
":. c #C58F2A",
">. c #C18B3A",
",. c #CB9A3F",
"<. c #C79438",
"1. c #D5A73D",
"2. c #E5BA22",
"3. c #AEC118",
"4. c #D7CD0F",
"5. c #EDC306",
"6. c #ECC20F",
"7. c #F0C706",
"8. c #F3CB06",
"9. c #F7D106",
"0. c #FAD506",
"q. c #FDD907",
"w. c #F1D309",
"e. c #FDD90B",
"r. c #FDDB13",
"t. c #FDDC1B",
"y. c #FDDE23",
"u. c #FDDE2D",
"i. c #FDDF33",
"p. c #FEE12C",
"a. c #FFE235",
"s. c #FEE23C",
"d. c #8C8841",
"f. c #918548",
"g. c #93924D",
"h. c #8CA940",
"j. c #8DBC42",
"k. c #96B352",
"l. c #A3BE67",
"z. c #D1A343",
"x. c #DDB449",
"c. c #DFB444",
"v. c #E1BC4C",
"b. c #9BC85A",
"n. c #ECCA4B",
"m. c #F6D848",
"M. c #E6C250",
"N. c #F2D351",
"B. c #F8DE5A",
"V. c #FEE343",
"C. c #FDE24B",
"Z. c #FDE453",
"A. c #FDE55A",
"S. c #FDE764",
"D. c #FDE769",
"F. c #FEE86A",
"G. c None",
/* pixels */
"G.G.G.G.G.G.G.G.G.G.G.G.G.G.G.G.G.G.G.G.G.G.G.G.G.G.G.G.G.G.G.G.G.G.G.G.G.G.G.G.G.G.G.G.G.G.G.G.G.G.G.G.G.G.G.G.G.G.      G.G.G.",
"G.G.G.G.G.G.G.G.G.G.G.G.G.G.G.G.G.G.G.G.G.G.G.G.G.G.G.G.G.G.G.G.G.G.G.G.G.G.G.G.G.G.G.G.G.G.G.G.G.G.G.G.G.G.G.G.G.G.o h g o G.G.",
"G.G.G.G.G.G.      G.G.G.G.G.G.G.G.G.G.G.G.G.G.G.G.G.G.G.G.G.G.G.G.G.G.G.G.G.G.G.G.G.G.G.G.G.G.G.G.G.G.G.G.G.G.G.G.o K L J 8   G.",
"G.G.G.G.G.    X 2 G.G.G.G.G.G.G.G.G.G.G.G.G.G.G.G.G.G.G.G.G.G.G.G.G.G.G.G.G.G.G.G.G.G.G.G.G.G.G.G.G.G.G.G.G.G.G.G.h J o   o . G.",
"G.G.G.G.      6 f.% G.G.G.G.G.G.G.G.G.G.G.G.G.G.G.G.G.G.G.G.G.G.G.G.G.G.G.G.G.G.G.G.G.G.G.G.G.G.G.G.G.G.G.G.G.G.s P o         G.",
"G.G.G.        A l.7 G.G.G.G.G.G.G.G.G.G.G.G.G.G.G.G.G.G.G.G.G.G.G.G.G.G.G.G.G.G.G.G.G.G.G.G.G.G.G.G.G.G.G.G.G.  H <.          G.",
"G.G.G.        r b.S G.G.G.G.G.G.G.G.G.G.G.G.G.G.G.G.G.G.G.G.G.G.G.G.G.G.G.G.G.G.G.G.G.G.G.G.G.G.G.G.G.G.G.G.G.s n.;.&           ",
"G.G.        : T [ g.o G.G.G.G.G.G.G.G.G.G.G.G.G.G.G.G.G.G.G.G.G.G.G.G.G.G.G.G.G.G.G.G.G.G.G.G.G.G.G.G.G.G.G.. ` a.9.p           ",
"G.G.        0 Q ! k.6 G.G.G.G.G.G.G.G.G.G.G.G.G.G.G.G.G.G.G.G.G.G.G.G.G.G.G.G.G.G.G.G.G.G.G.G.G.G.G.G.G.G.G.c N.r.q.N           ",
"G.        O Y Q Q j.A G.G.G.G.G.G.G.G.G.G.G.G.G.G.G.G.G.G.G.G.G.G.G.G.G.G.G.G.G.G.G.G.G.G.G.G.G.G.G.G.G.G.@ z.p.q.q.+.X         ",
"G.        , W Q Q ] ) X G.G.G.G.G.G.G.G.G.G.G.G.G.G.G.G.G.G.G.G.G.G.G.G.G.G.G.G.G.G.G.G.G.G.G.G.G.G.G.G.  F C.e.q.q.8.i         ",
"        . r Q Q Q Q g.4 G.G.G.G.G.G.G.G.G.G.G.G.G.G.G.G.G.G.G.G.G.G.G.G.G.G.G.G.G.G.G.G.G.G.G.G.G.G.G.G.s n.t.q.q.q.q.Z         ",
"        < W Q Q Q Q { t G.G.G.G.G.G.G.G.G.G.G.G.G.G.G.G.G.G.G.G.G.G.G.G.G.G.G.G.G.G.G.G.G.G.G.G.G.G.G.o ,.s.q.q.q.q.q.*.&       ",
"      . r Q Q Q Q Q ! D G.G.G.G.G.G.G.G.G.G.G.G.G.G.G.G.G.G.G.G.G.G.G.G.G.G.G.G.G.G.G.G.G.G.G.G.G.G.  G C.e.q.q.q.q.q.| i Z } a ",
"      , W Q Q Q Q Q Q ) 2 G.G.G.G.G.G.G.G.G.G.G.G.G.G.G.G.G.G.G.G.G.G.G.G.G.G.G.G.G.G.G.G.G.G.G.G.G.c N.y.q.q.q.q.q.q.l Z q.q.x ",
"    + Y Q Q Q Q Q Q Q ! 9 G.G.G.G.G.G.G.G.G.G.G.G.G.G.G.G.G.G.G.G.G.G.G.G.G.G.G.G.G.G.G.G.G.G.G.G.5 v.a.q.q.q.q.q.q.*.p -.q.0.x ",
"  # q W Q Q Q Q Q Q W Q e G.G.G.G.G.G.G.G.G.G.G.G.G.G.G.G.G.G.G.G.G.G.G.G.G.G.G.G.G.G.G.G.G.G.G.; z.V.e.q.q.q.q.q.q.V n q.q.0.z ",
". 0 r T Q Q Q Q Q Q Q Q T # G.G.G.G.G.G.G.G.G.G.G.G.G.G.G.G.G.G.G.G.G.G.G.G.G.G.G.G.G.G.G.G.G.@ :.C.r.q.q.q.q.q.q.7.k #.q.q.9.l ",
"G.$ w I E Q Q Q Q Q Q Q W 9 X     G.G.G.G.G.G.G.G.G.G.G.G.G.G.G.G.G.G.G.G.G.G.G.G.G.G.G.G.G.@ ~ i.t.q.q.q.q.q.q.q.o.z 0.q.q.8.k ",
"G.  $ w I E Q Q Q Q Q Q ' %.c.<.F s X     G.G.G.G.G.G.G.G.G.G.G.G.G.G.G.G.G.G.G.G.G.G.G.G.& X.a.t.q.q.q.q.q.q.q.0.x o.q.q.q.5.p ",
"G.G.  $ w I E Q Q Q Q Q ( e.p.s.C.N.x.H c * .   G.G.G.G.G.G.G.G.G.G.G.G.G.G.G.G.G.G.G.  > O.q.t.e.q.q.q.q.q.q.q.@.z 8.q.q.q.-.> ",
"G.G.G.  : w I E Q Q Q Q 4.q.q.q.e.r.u.s.m.;.X.x > X     G.G.G.G.G.G.G.G.G.G.G.G.G.G.. l =.e.q.q.q.q.q.q.q.q.q.0.n o.q.q.q.q.$.= ",
"G.G.G.G.  $ w I R Q Q 3.0.q.q.q.q.0.q.q.r.t.t.e.7.#.V k = X     G.G.G.G.G.G.G.  . > ~ 8.q.q.q.q.q.q.q.q.q.q.q.@.x 8.q.q.q.q.o.@ ",
"G.G.G.G.G.  $ w I R / w.q.q.q.q.q.q.q.q.q.q.q.q.q.q.q.0.6.1.` v s @       . ; c _ 5.q.q.q.q.q.q.q.q.q.q.q.q.0.n +.q.q.q.q.0.Z X ",
"G.G.G.G.G.G.  : m ^ w.q.q.q.q.q.q.q.q.q.q.q.q.q.q.q.q.q.e.p.V.C.N.x.,.>.>.z.M.B.s.q.q.q.q.q.q.q.q.q.q.q.q.q.o.M 0.q.q.q.q.9.M G.",
"G.G.G.G.G.G.G.& Z +.8.q.q.q.q.q.q.q.q.q.q.q.q.q.q.q.q.q.q.q.q.r.t.u.s.V.V.V.s.y.r.q.q.q.q.q.q.q.q.q.q.q.q.7.x *.q.q.q.q.q.5.x G.",
"G.G.G.G.G.G.G.X V O.-.q.q.q.q.q.q.q.q.q.q.q.q.q.q.q.q.q.q.q.q.q.q.q.q.q.q.q.q.q.q.q.q.q.q.q.q.q.q.q.q.q.q.Z Z q.q.q.q.q.q.$.k G.",
"G.G.G.G.G.G.G.G.N o.&.q.q.q.q.q.q.q.q.q.q.q.q.q.q.q.q.q.q.q.q.q.q.q.q.q.q.q.q.q.q.q.q.q.q.q.q.q.q.q.q.q.&.n 7.q.q.q.q.q.9.+.p G.",
"G.G.G.G.G.G.G.G.b +.+.q.q.q.q.q.q.q.q.q.q.q.q.q.q.q.q.q.q.q.q.e.q.q.q.q.q.q.q.q.q.q.q.q.q.q.q.q.q.q.q.8.n $.q.q.q.q.q.q.5.| > G.",
"G.G.G.G.G.G.G.G.l O.O.7.q.q.q.q.q.q.q.q.q.q.q.q.q.q.q.q.q.q.q.q.q.q.q.q.q.q.q.q.q.q.q.q.q.q.q.q.e.q.q.Z Z q.q.q.q.q.q.q.*.Z & G.",
"G.G.G.G.G.G.G.G.p o.o.*.q.q.q.q.q.q.q.q.q.q.q.q.q.q.q.q.q.q.q.q.q.q.q.q.q.q.q.q.q.q.q.q.q.q.q.q.q.q.O.M 9.q.e.q.q.q.q.9.@.M G.G.",
"G.G.G.G.G.G.G.G.y | o.@.0.q.q.q.q.q.q.q.q.q.q.q.q.q.q.q.q.q.e.q.q.q.q.q.q.q.q.q.q.q.q.q.q.q.q.q.q.#.z 5.q.q.q.q.q.q.q.-.+.z G.G.",
"G.G.G.G.G.G.G.G.& C o.+.7.q.q.q.q.q.q.q.q.q.q.e.q.q.q.q.q.q.q.q.q.q.q.q.q.q.q.q.q.q.q.q.q.q.q.q.$.a #.q.q.q.q.q.q.q.q.$.o.p G.G.",
"G.G.G.G.G.G.G.G.G.N +.o.*.q.q.q.q.q.q.q.q.q.q.q.q.q.q.q.q.q.q.q.q.q.q.q.q.q.q.q.q.q.q.q.q.q.q.$.a | q.q.q.q.q.q.e.q.7.+.} = G.G.",
"G.G.G.G.G.G.G.G.G.z o.o.@.8.q.q.q.q.q.q.q.q.q.q.q.q.q.q.q.q.q.q.q.q.q.q.q.q.q.q.q.q.q.q.q.q.$.p Z q.q.q.q.q.q.q.q.q.*.O.V X G.G.",
"G.G.G.G.G.G.G.G.G.p o.o.+.-.q.0.e.q.q.q.q.q.q.q.q.q.q.e.q.q.q.q.q.q.q.q.q.q.q.q.q.q.q.q.q.@.a | q.q.e.q.q.q.q.q.q.8.+.O.x G.G.G.",
"G.G.G.G.G.G.G.G.G.* } +.o.#.0.q.q.q.q.q.q.q.q.q.q.q.q.q.q.q.q.q.q.q.q.q.q.q.q.q.q.q.q.0.o.z @.q.q.q.q.q.q.q.q.q.q.*.o.o.p G.G.G.",
"G.G.G.G.G.G.G.G.G.G.N O.o.o.5.q.q.q.q.q.q.q.q.q.q.q.q.q.q.q.q.q.q.q.q.q.q.q.q.q.q.q.q.&.~ 5.q.q.q.q.q.q.q.q.q.q.7.+.o.~ * G.G.G.",
"G.G.G.G.G.G.G.G.G.G.l +.o.o.$.0.q.q.q.q.q.q.q.q.q.q.q.q.e.q.q.q.q.q.q.q.q.q.q.e.q.q.q.0.q.q.q.q.q.q.q.q.q.q.q.q.*.o.+.M G.G.G.G.",
"G.G.G.G.G.G.G.G.G.G.>  .o.o.o.-.q.q.q.q.q.q.q.q.q.q.q.e.q.q.q.q.q.q.q.q.q.q.q.q.q.q.q.q.q.0.0.q.q.q.q.q.q.q.q.5.+.o.O.a G.G.G.G.",
"G.G.G.G.G.G.G.G.G.G.X V O.o.o.@.0.q.q.q.q.q.q.q.q.q.q.q.q.q.q.q.q.e.q.q.q.q.q.q.q.q.q.q.0.t.s.u.q.q.q.q.q.q.0.$.o.+.} * G.G.G.G.",
"G.G.G.G.G.G.G.G.G.G.G.l +.o.o.o.=.q.q.q.q.q.q.q.q.q.q.q.q.q.q.q.q.q.q.q.q.q.q.q.q.q.q.q.u.A.F.V.q.q.q.q.q.q.=.o.o.+.M G.G.G.G.G.",
"G.G.G.G.G.G.G.G.G.G.G.= | o.o.o.+.5.q.q.q.q.q.q.q.q.q.q.q.q.q.q.q.q.q.q.q.q.q.q.q.q.r.m.D.F.D.t.q.q.q.0.q.7.+.o.o.o.u G.G.G.G.G.",
"G.G.G.G.G.G.G.G.G.G.G.G.M +.o.o.o.#.9.q.q.q.q.q.q.q.q.q.q.q.q.q.q.q.q.q.q.q.0.e.e.p.A.F.F.F.s.q.q.q.q.q.0.#.o.o.+.C X G.G.G.G.G.",
"G.G.G.G.G.G.G.G.G.G.G.G.u O.o.o.o.o.&.0.q.e.q.q.q.q.q.q.q.q.q.q.q.q.q.q.q.e.y.i.A.F.F.F.F.Z.e.q.q.q.q.0.*.o.o.o.+.k G.G.G.G.G.G.",
"G.G.G.G.G.G.G.G.G.G.G.G.  N @.o.o.o.O.=.q.q.e.q.q.q.q.q.q.q.q.q.q.e.t.u.V.A.D.F.F.F.F.F.A.t.q.q.q.q.q.=.O.o.o.O.} & G.G.G.G.G.G.",
"G.G.G.G.G.G.G.G.G.G.G.G.G.u +.O.o.O.o.O.-.q.e.q.q.q.q.q.q.q.q.r.a.Z.S.F.F.F.F.F.F.F.F.A.y.q.q.q.q.q.-.o.o.o.o.@.z G.G.G.G.G.G.G.",
"G.G.G.G.G.G.G.G.G.G.G.G.G.  N @.o.o.o.o.+.-.0.q.q.q.q.q.q.q.q.C.F.F.F.F.F.F.F.F.F.F.Z.r.q.q.0.q.q.-.+.o.o.o.+.| & G.G.G.G.G.G.G.",
"G.G.G.G.G.G.G.G.G.G.G.G.G.G.= O.+.o.O.o.o.+.=.0.q.0.q.q.q.q.q.m.F.F.F.F.F.F.F.F.S.s.e.q.q.q.q.q.-.+.o.o.o.o.#.k G.G.G.G.G.G.G.G.",
"G.G.G.G.G.G.G.G.G.G.G.G.G.G.G.l #.o.o.o.o.o.+.$.0.q.q.q.q.q.q.t.C.S.S.S.D.D.Z.s.t.q.q.q.q.q.0.=.+.o.+.o.o.#.Z . G.G.G.G.G.G.G.G.",
"G.G.G.G.G.G.G.G.G.G.G.G.G.G.G.X Z #.o.O.o.o.o.o.#.5.q.q.q.q.q.q.e.t.t.p.y.t.q.q.0.q.q.q.q.9.&.O.o.o.o.o.+.@.> G.G.G.G.G.G.G.G.G.",
"G.G.G.G.G.G.G.G.G.G.G.G.G.G.G.G.= +.@.O.o.+.o.o.o.+.*.8.q.q.q.q.q.q.0.q.q.0.q.q.q.q.q.q.5.@.o.o.o.o.o.o.$.z G.G.G.G.G.G.G.G.G.G.",
"G.G.G.G.G.G.G.G.G.G.G.G.G.G.G.G.G.a $.+.o.o.O.o.o.o.o.+.*.7.0.q.q.q.q.q.q.q.q.q.q.q.8.*.+.o.o.O.o.o.o.$.V . G.G.G.G.G.G.G.G.G.G.",
"G.G.G.G.G.G.G.G.G.G.G.G.G.G.G.G.G.  l *.+.o.o.o.o.o.o.o.o.+.#.=.7.0.0.q.q.q.q.0.8.=.+.O.o.o.o.o.o.o.$. .& G.G.G.G.G.G.G.G.G.G.G.",
"G.G.G.G.G.G.G.G.G.G.G.G.G.G.G.G.G.G.  b =.+.o.o.o.O.O.O.O.o.o.o.+.+.$.*.=.-.-.$.+.o.+.o.o.o.o.o.o.$.+.> G.G.G.G.G.G.G.G.G.G.G.G.",
"G.G.G.G.G.G.G.G.G.G.G.G.G.G.G.G.G.G.G.  b =.@.o.o.O.O.O.O.O.o.o.o.o.o.o.o.o.o.o.o.o.o.o.o.o.o.o.$.#.u G.G.G.G.G.G.G.G.G.G.G.G.G.",
"G.G.G.G.G.G.G.G.G.G.G.G.G.G.G.G.G.G.G.G.  l *.*.+.O.O.O.O.O.O.O.o.O.O.O.O.o.o.o.o.O.o.O.O.o.o.*.@.>   G.G.G.G.G.G.G.G.G.G.G.G.G.",
"G.G.G.G.G.G.G.G.G.G.G.G.G.G.G.G.G.G.G.G.G.  u +.-.+.o.O.o.O.O.o.O.o.O.O.o.O.O.o.O.o.O.o.o.+.=.o.>   G.G.G.G.G.G.G.G.G.G.G.G.G.G.",
"G.G.G.G.G.G.G.G.G.G.G.G.G.G.G.G.G.G.G.G.G.G.  & B -.=.+.o.o.o.o.O.o.O.o.O.o.o.o.o.o.o.o.$.-.V & G.G.G.G.G.G.G.G.G.G.G.G.G.G.G.G.",
"G.G.G.G.G.G.G.G.G.G.G.G.G.G.G.G.G.G.G.G.G.G.G.G.  u | -.-.#.o.o.o.o.o.o.o.o.o.o.o.O.#.5.$.l . G.G.G.G.G.G.G.G.G.G.G.G.G.G.G.G.G.",
"G.G.G.G.G.G.G.G.G.G.G.G.G.G.G.G.G.G.G.G.G.G.G.G.G.  . i } =.7.-.$.@.O.O.o.O.O.+.*.5.*.N &   G.G.G.G.G.G.G.G.G.G.G.G.G.G.G.G.G.G.",
"G.G.G.G.G.G.G.G.G.G.G.G.G.G.G.G.G.G.G.G.G.G.G.G.G.G.G.    = x | *.5.8.5.-.-.7.7.#.M =   G.G.G.G.G.G.G.G.G.G.G.G.G.G.G.G.G.G.G.G.",
"G.G.G.G.G.G.G.G.G.G.G.G.G.G.G.G.G.G.G.G.G.G.G.G.G.G.G.G.G.G.  . & i x N } Z n p X   G.G.G.G.G.G.G.G.G.G.G.G.G.G.G.G.G.G.G.G.G.G.",
"G.G.G.G.G.G.G.G.G.G.G.G.G.G.G.G.G.G.G.G.G.G.G.G.G.G.G.G.G.G.G.G.G.              G.G.G.G.G.G.G.G.G.G.G.G.G.G.G.G.G.G.G.G.G.G.G.G."
};
