/* XPM */
static char *result[] = {
/* columns rows colors chars-per-pixel */
"64 64 215 2 ",
"   c #0D141C",
".  c #0F181F",
"X  c #1C1515",
"o  c #1C1616",
"O  c #12151B",
"+  c #111A1E",
"@  c #1B191A",
"#  c #231D1A",
"$  c #2B1F19",
"%  c #27211D",
"&  c #2B231E",
"*  c #31251C",
"=  c #35291F",
"-  c #0F1920",
";  c #111C23",
":  c #121B24",
">  c #152325",
",  c #192524",
"<  c #192A26",
"1  c #152529",
"2  c #1C242B",
"3  c #17282A",
"4  c #1A2B2A",
"5  c #1E3226",
"6  c #1E332C",
"7  c #1B2631",
"8  c #1C2B35",
"9  c #1D2E38",
"0  c #1F3034",
"q  c #2D2620",
"w  c #2E2822",
"e  c #252A2C",
"r  c #302720",
"t  c #342B23",
"y  c #3A2E24",
"u  c #322E2B",
"i  c #20362C",
"p  c #2A322E",
"a  c #233B2D",
"s  c #353027",
"d  c #3C3126",
"f  c #34312A",
"g  c #3C3429",
"h  c #3D392D",
"j  c #242F37",
"k  c #253636",
"l  c #243D30",
"z  c #29333C",
"x  c #373833",
"c  c #343A3C",
"v  c #433425",
"b  c #493725",
"n  c #4A3927",
"m  c #42362A",
"M  c #443A2D",
"N  c #4B3C2C",
"B  c #513E29",
"V  c #433E31",
"C  c #4B3F30",
"Z  c #26412E",
"A  c #29442D",
"S  c #2C4C2F",
"D  c #33562E",
"F  c #274130",
"G  c #294531",
"H  c #2C4A31",
"J  c #2B463B",
"K  c #3B4431",
"L  c #324C34",
"P  c #2F5031",
"I  c #315332",
"U  c #365B33",
"Y  c #395E34",
"T  c #3A5B38",
"R  c #3B6335",
"E  c #3E6935",
"W  c #4E412E",
"Q  c #574027",
"!  c #54422C",
"~  c #5C462C",
"^  c #5E492E",
"/  c #454233",
"(  c #4B4334",
")  c #424B35",
"_  c #4E4936",
"`  c #4B4638",
"'  c #4D4A3A",
"]  c #534533",
"[  c #584732",
"{  c #544936",
"}  c #5C4C35",
"|  c #534C3C",
" . c #5B4E39",
".. c #435639",
"X. c #52553F",
"o. c #5C523D",
"O. c #654C2D",
"+. c #694F2E",
"@. c #6B502F",
"#. c #634E32",
"$. c #604F39",
"%. c #655235",
"&. c #6B5333",
"*. c #64543C",
"=. c #6A563A",
"-. c #67583C",
";. c #6C593D",
":. c #715634",
">. c #725936",
",. c #735C3C",
"<. c #795F3C",
"1. c #416B38",
"2. c #75603E",
"3. c #79613E",
"4. c #293A45",
"5. c #303A45",
"6. c #2F474B",
"7. c #374346",
"8. c #3B4652",
"9. c #314C5A",
"0. c #3A5C52",
"q. c #385667",
"w. c #3E5F72",
"e. c #474A43",
"r. c #424A4A",
"t. c #4F5249",
"y. c #4A564D",
"u. c #565141",
"i. c #5B5542",
"p. c #52544B",
"a. c #58584B",
"s. c #5D5B4B",
"d. c #5B5D53",
"f. c #625640",
"g. c #655A42",
"h. c #6C5C42",
"j. c #635E4C",
"k. c #6D5F48",
"l. c #725F41",
"z. c #625F50",
"x. c #566157",
"c. c #5E7A57",
"v. c #6D6145",
"b. c #6C6149",
"n. c #6A664B",
"m. c #746244",
"M. c #7B6544",
"N. c #7C6945",
"B. c #756549",
"V. c #796749",
"C. c #75694A",
"Z. c #7B6A4B",
"A. c #7D714B",
"S. c #656352",
"D. c #6A6554",
"F. c #6C6A58",
"G. c #716D5A",
"H. c #7D7255",
"J. c #76715E",
"K. c #4D5865",
"L. c #596867",
"P. c #44687C",
"I. c #556F74",
"U. c #6F796D",
"Y. c #767463",
"T. c #797664",
"R. c #7B7966",
"E. c #71716F",
"W. c #7D7B69",
"Q. c #6E7978",
"!. c #816A45",
"~. c #826D4B",
"^. c #84734D",
"/. c #88754B",
"(. c #8A794F",
"). c #917C4E",
"_. c #857351",
"`. c #897753",
"'. c #867A53",
"]. c #8B7C52",
"[. c #907E52",
"{. c #817E6A",
"}. c #7A886C",
"|. c #7D8878",
" X c #938151",
".X c #948353",
"XX c #998555",
"oX c #9D8B55",
"OX c #A18F55",
"+X c #A59356",
"@X c #84826E",
"#X c #878673",
"$X c #8B8974",
"%X c #918E77",
"&X c #86967B",
"*X c #98957C",
"=X c #486D83",
"-X c #4C7586",
";X c #4D768D",
":X c #4F7890",
">X c #527C94",
",X c #597E90",
"<X c #6C7887",
"1X c #578196",
"2X c #57829B",
"3X c #59839A",
"4X c #788688",
"5X c #6F8897",
"6X c #5987A1",
"7X c #5A88A2",
"8X c #718EA2",
"9X c #87958C",
"0X c #8897A5",
"qX c #8FA5AE",
"wX c #95A8AF",
/* pixels */
"9X|.|.|.}.I c.|.Q.E.z   1 6 H U }.&X|.U.k 4XwXwXwXwXwXwXqXqXqXwXwXwXwXwXwXwXwXwXwXwXwXwXqX6X7X7X7X7X7X7X7X7X7X7X7X7X7X7X7X7X7X7X",
"R A 4 a P H l 6 1       - > > 6 D R S 3 4.2X7X7X2X7X6X6X6X6X7X7X6X7X2X6X6X6X6X2X7X7X7X7X7X2X7X7X7X7X7X7X7X7X7X7X7X7X7X7X7X7X7X7X",
"q.k 1 > > 6 6 1 -     1 >     ; 3 6 6 > 7 =X6X7X6X6X6X7X7X7X7X7X7X7X7X7X7X7X7X7X7X7X7X7X7X7X7X7X7X7X7X7X7X7X7X7X7X7X7X7X7X7X7X7X",
"7X;Xw.7 . - .       1 i < .     > 6 A a 3 0 6.w.-X1X7X7X7X7X7X7X7X7X7X7X7X7X7X7X7X7X7X7X7X7X7X7X7X7X7X7X7X7X7X7X7X7X7X7X7X7X7X7X",
":X-X4.        . - > H G 4 4 +   ; 1 3 I E U U H a 9.2X7X7X7X7X7X7X7X7X7X7X7X7X7X7X7X7X7X7X7X7X7X7X7X7X7X7X7X7X7X7X7X7X7X7X7X7X7X",
"1 - - - - - > ; > F H 6 > > 6 5 3 4 4 4 H I a > 8 =X6X6X7X7X7X7X7X7X7X7X7X7X7X7X7X7X7X7X7X7X7X6X7X7X7X7X7X7X7X7X7X7X7X7X7X7X6X6X",
"q.7 - ;   - - > H R H 4 ; - 4 i a i 3   ; + - 8 q.7X7X6X7X7X7X7X7X3X7X7X7X7X6X6X7X7X7X7X7X7X6X6X7X7X7X7X7X7X7X7X7X7X7X7X7X7X7X7X",
"7X-X9.9 7 ; > H I H l ;   - ; ; > . . - ; - - 9 4.q.=X6X7X7X7X7X7X7X3X1XL.4X9X9X9X4X9X4X5X7X6X6X7X7X7X7X7X7X7X7X7X7X7X7XI.L.9X9X",
"1X>Xq.9.9.8 6 l 4 > -     - -           1 3 > - - 9 :X7X7X6X6X6X7X7XI.x.| S.%X*X#XW.R.R.#X5X2X2X3X3X3X3X2X2X3X3X3X3X3XL.p.o.J.*X",
"9 J < > Z 4 ; ; ; -       3 5 ;         + i 6 ; 1 P.7X7X7X6X6X6X7XI.s./ g | j.{.R.J.J.Y.@XW.d.r.t.a.p.e.e.e.p.a.a.p.t./ / ` X.D.",
"q.1 < a H G > - > 4 -     ; 4 l 3 > -   ; 4 4 - : =X7X7X7X6X6X6XI.i.M d | g.| s.R.$X@XT.@X$XY.i./ / ` / V / K ( X.| ` / / h / | ",
"0.J D I a a ; , l 4 - ; - - - 1 6 l 4 > 8 k ; 8 4.;X7X6X6X6X6XL.u.g g  .o.,.*.| i.@X$X@XY.#X$XR.s./ ` | ' ' ' / ' ` / / / / / / ",
"I U R I H i ; i 6 > ; i 3   - - ; 4 4 i F k 9.;X>X=X>X7X7X3XL.u.g h { m v #.!.m.o.i.J.@XY.T.#X{.Y.s./ ' u./ ` u.| / / / ' / / / ",
"G G l F 3 > 3 3 ;   > I A <       - > 4 3 : 9 j 8 4.>X7X,XL.| g d *. .y v l.M.V.C.o.u.J.@XT.Y.Y.Y.Y.S.` / / h / ' ` / / ` ' ` ` ",
"i > 1 1     - -     . 3 H Y P a < ;     .     : 4.:X7X>Xd.' f m ^ ;.v._ V ] m C h.*.| i.G.{.R.R.Y.Y.Y.D.u.' / V ' u.u.' / ' ` / ",
"6.z 4.8.        ;     ; 1 H U H 3 .   . > z K.<X8X8X,Xd.( g C &.%.;.Z.v.i.*.$.*.>.&.%.' X.D.@X#XT.Y.T.Y.F.u./ V ( X.i.u.i.X./ / ",
"5X<XK.5.: -   4 H 3 ;     1 4 4   . > i R 0.Q.0X0X4Xd.C t M M.~.] m N k.,.:.:.l.M.^.h.m V u.D.@XW.T.Y.T.Y.F.' h ' / ' i.u.u.u.` ",
"I.5., i 5 ; , U R 6 ;       -       - 5 I E T 0.Q.a.V t d C =.,.} m { Z.l.&.@.&.=.,.;.M C { | j.W.T.Y.Y.Y.Y.J.u.K / / ` u.' ' / ",
"L i a D a 6 U Y F 3 -     . >     . - - 1 5 Z ..u.V g { f.M.l.,.Z.Z..XoX`.V.l.B.M.&.m.v.=.+.} u.S.W.W.T.R.Y.Y.Y.a.V V / h / / / ",
": a Y a 3 I R H i 3 - -   5 U 5     .     ; x | M g o.[ m N l.M.&.N.^.OXXXB.C m  .B..X].=.+.&.g.| s.W.#X@XY.Y.W.{.j./ / / V / V ",
", A i 4 U U F i 3 ; ; > - 1 l H a < , , 5 K | h g { B.*.v y } M.&.| i..X[.V.N y m C..XA.Z.=.*.B.o.' s.Y.{.@XW.Y.W.@Xj.| X.' ' V ",
"t.7.j 6 H i 3 ; - > 8 > - ; 1 4 I E D T t.X.g M  .&.,.3.*.d { <.>.} i.} } >.l.] *.*.%.;.Z. .N =.2. .' i.J.@X%XR.Y.Y.Y.x.' ' | ' ",
"F.r.3 : ; - - ; 1 i i >   - > 3 Z I H e.| g V k.&.@.&.M.b.' o.&.&.l. .y m =.~.~.^.;.&.;.l.g y ] N.g.' | i.J.@XY.Y.Y.Y.Y.S.` / ` ",
"L p - - -   - 1 i H 6 ; ; -   ; 3 l ' ' g g  .m.,.+.l.*.M | i.m.M.M.g.m *.g.C ] m.m.M.M.m.N N h.*.m | i.| i.F.@XY.R.W.Y.Y.D.' h ",
"I >     - > a I R E a - 4 i >   e ' ' t y d m f.~.l.| m N g./.h.+.=.Z.B.g.m d ( =.&.@.:.l.~.g.` m C v./.*.{ u.D.$X$X*XR.Y.R.F.' ",
"6 -   , l U E E E U a . > R D p | ( g ( =.$.C  .h.k.$.%.l.~.[.~.$.{ $.B.f.#.[ o.l.!.;.]  .k.B.^.].^.]..XN.] V | D.$X%X{.W.W.$XR.",
"> > i I L E I I P H >   ; a U X./ d ! *.g.=.v y [ V.;.@.+.=.l.M.] y m B.l.+.@.+.l.[.h.y d $._.XX+XOX(.*.*.N d ` | n.Y.S.S.p.z.D.",
"D Y R Y H H i 5 l 6     ; 4 L T K / *.*.n g.g. .&.h.k.,.l.M.:.:.m. .$.>.B.l.=.h./.)./.f. .=.g.Z.XX].Z.N $.b.{ ] ( | M # # # # # ",
"6 H H i a a > ; > >     ; 6 F E ) M M *.M.).XX<.+.#.l.h.[  .k.*.,.M.&.@.M.Z.( C l.M.<.!.>.+.} B.*.[ *.;.N.XXm.n y g q o X o # X ",
"> > 1 > > ;     > 6 +     > 4 F K d y g v.oXOXZ.=.&.V.{ y d  .:.&.f.h.@.*.l.y y m *.+.M.V.=.:.~.( y y g.oX(.g.-.~ V & o o # # # ",
".     ;       3 S E a ;     > 1 M  .N M o.h.N.^.V.M.!.h.] d f.M.h.$.k.f.{ l.g.m V i.=.!._.l.h.l.g.C m l.~.h.i.k. .C t t q f s r ",
"e.p 1 ;       a I E R 6     . - N 2.Z.b.*.@.&.M.:.@.#.,.~.V.M.&.@.;. .y v &.!.Z.k.#.+.&.l.m y ! <.!.Z.l.+.+.l.] y t & y y g q # ",
"I H 6 ; ; > Z U H H R H -       u ] f.B.V.l.l.V.:.#.h.M.*.l.~.l.M.Z.f.f m k.=.g.Z.m.m.m.l.g M k.l.$.Z.Z.l.M.Z.{ y & r r y g t r ",
"U 5 1 - > Z L A i a Y R <     + u v m ] ( C N o.V.*.u.m d } =.=.:.=.B. .C C v C ( ] N N g.h.' | m v  .=.=.:.;.V.] # o # u r t & ",
"6 ; > - - > ; 3 1 ; a Y S < +   M ;.l.g.! C ] g.B.g. . .h.M.,.<.$.g.l.k.h.l.=.l.o.N W o.M.V.f. . .h.M.,.,.#.g.M.f.y & q y q & q ",
">   - .     ; -   ; 1 6 I R A > ! &.=.l.Z.l.M d ] B.^ B #.l.V.!.B d m l.,.@.&.;.m.~.h.+.+.h.B.+.+.=.l.M.l.N y C B.} # & q y t t ",
"> x e               ; 3 l I G 4 ( &.&.=.M *.] ` *.M.f.v [ ;.$.>.*.( h.`.B.=.&.,.;.&.M.*. .=.M.g.:.&.l.N } $.C $.l.( q q t w & t ",
"d.c 2           ;     - 1 3 1 : g o.h.m.%.h.Z.,.@.&.~.f.f.l.M.<.!.^.OXOX[.Z.h.h.M.=.m.Z.:.+.,._.,.h.l.l.l.Z.l.@.m o o o w t q s ",
"z.+           ; > ;     ; ; - + f M y N B.oX[.k.&.:.V.] y y h.3.@.k.l.oX[.k.v y ] Z.OX].g.@.&.Z.N y m l.>.&.f.{ N & q q # w q # ",
"D.L A i 1 -   - - > >           h  .g g f.A.Z.Z.l.$.l.h.N y $.M.;.] f.`.[.!.] y M v.Z.Z.~.g.$.V.$.m y h.!.%.] g.<.M t t % t f t ",
"1.E E S >   + ;   > i 4 3 ; ; > ! M.g.l.*.+.&.M.{ v [ ,.h.h { :.&.%.o.N N &.m.*.m.=.+.&.V.C v ^ 3.o.h  .:.&.*.{ M g & t t y r & ",
"a a < ;   ; a 5 ; - 1 1 3 3 i a ` m.V.^.m.>.h.V.m y [ M.g.u.i.>.;.;.-.B.b.o.^.~.B.;.>.h.m.y g $.Z.*.| g.,.;.V.[ g M r t y y w q ",
";     > i I R 4 ;       + : 3 3 f g m ;.l.,.<.l.*.C o.[ y ( o.[.N.-..X_.*.^.oXN.X.-.,.m.l. .( *.! g | g.l.>.l.g.V h t & t s d & ",
"  ; l R E P 6 1 ;             ; f M ` =.&.&.=.m._.B.| N  .k.m.'.Z.} ! n = / h.;.%.].N.} h.^.k.` ]  .Z.[.h.&.h.k.` y % w f q % % ",
"> H R U G 5 > ;     ; > 5 < ; + M O.} l.~.M.&.>.<.b.%.&.m.].~.^ B * o X % % t m } Z.C.i.( *.k.#.&.>.Z.`.N.] M M / h q t s d = & ",
"P H a 4 3 >       , + > A R L ; B :.&.*.,.M.=.+.*.V.;.>.,.B.&.* X X % d ! ^ ^ ^ N ! ~ /.N.' B.&.+.&.*.[ $.( d [ g.V % % & s & r ",
"5 ; - - ; -   . < 6 ; + > a R A / *.i.l.:.M.V. .v ( b..X'.} $ X X d [ +.%.! ! @.+.O.O.h.g.V u.B.m.M.M.[ =.Z.;.%.&.' r s g = & t ",
". - - .   -   - > 6 4   + ; a I K M g [ M.>.<.*.y d g.^.M.~ X X = +.~ W X.v M o.N W O.! C.C.` b.;.&.>.h./.oXm.+.&. .h % % t r % ",
"> 1 3 1 1 1 -   4 l ;         , h N y d  .%.3.~.o.[ ~.~. .t o # ~ ~ M /  .g M | M M W >.Z.^. .Z.*.@.+.m.oXZ.g.k.&.d q q # r s q ",
"a G I 6 3 1   O , 3           ; ( l.{ ` o.%.,.~.h.{ m.].N.y o & +.n M n $.m b O.N v M O.#.k./ } ;.,.,.m.<.=.f.f.M # # t q f s q ",
"H I F 4 - : 2                   ( !.~.C.=.&.&.m.M t { -.! * X $ O.O.+.+.@.O.+.@.+.O.+.%.Z..X! ] l././.M.&.&.l.C & # X $ t t q # ",
". > > .   : e   @ O             V  .] m.B.M.M.m.! M Z.H.h.= X * O.n v n +.n v O.B v N } b.A.X.| ,.=.h.B.l.h.k.{ t o # $ t y g r ",
"7 1 ; : e z 2 & q # O @         w g W =.%.&.&.v.Z. .i.v.%.* X & O.v y n O.v d +.M y v >.Z.A.|  .&.:.{ m m m { k.M # # & t q q % ",
"z z j j z 4.f ;.~ q $ @     O   s ( h.N.M.3.} } g.g.N.].%.& X & O.n d W +.v M +.n d n O.m.'.o.A._._.M.*.*.]  .*.( # r r g r q r ",
"z z z z z z u <.O.r r # O O X   t } @.-.M.m.M t | V.!.].,.= o & ^ M V ` } M /  .M V C h.} v.o.XX+XOX(.k.g.m y C *.g & % q d t t ",
"c c 5.c z z u N y t b $ X O X   M &.m.m.&.,.o.o.&.h.Z.v.[ & @ * } M / / | M / u.V h / k.A.A.{ g.oX].Z.N #.h. .$.>.( w & t & % y ",
"u.i.o.%.! s & = t C >.y # # #   f {  .h.;.N.'.,.@.:.(.oXH.v X $ } M { ' | M / u./ M /  .,.H./ h.3.<.M.!.<.M.M.+.#.M w d q r s w ",
"V / N Q +.v & } ~ [ >.y r q @ O s g t v B.OX Xh.&.%.v.N.,.= X *  .] %.h.o.h / o.M h / v.k.X./ g.:.+.&.!.>.&.o.{ #.M w t # w t % ",
"v b v b +.d d 3.! v ~ t q r # + M ;.m C i.,.v.~.v.{ N.^.! % X & } N | |  .M M +.N h N m.^._.| -.M.&.#.l.h.} / V ( g & r % d f s ",
"v b b Q O.d v &.n y N & # r # O N M.V.Z.;.@.%.M.W t } Z.~ * X * O.n M N O.v v #.n d v ^ %.Z.M ! M.l.] ( y y  .N y h t t t s & % ",
"b Q Q ~ b t r N r & ! N q t & @ ` h.*.Z.m.3.m.V.N y | m.[ & o % O.v d n O.v d O.n y v &.v.m.] -.M.[ u.i.o.;.B.{ g ` h t t d t r ",
"y y d f f f w t r & B B q q # O d d m *.;.;.>.;.v.{ B. X,.= X $ O.! n Q O.B B +.Q n ! :.Z. X .{ m g o.v.h.:.;.g. .{ & % s r s & ",
"y * e k z 5.p W N.! y % @ @ O   f M | ,.>.>.%.h.N.n.-.-.b & X % O.O.~ } %.O.O.#.#.~ ^ #.} -._ | } h.`..Xm.%.;.o.h.g w r g q & & ",
"@.b e 6.x.y.c >.!.O.q   O O 2 / t ! } h._.l.v d (  XA.(.+.= o & O.b d o.n.v d | N y m [ *.C.m.&.&.=.M.`.Z.N g N A.` % % t d y & "
};
