/* XPM */
static char *_e26239ba4674773b1cbb1cef4f74366GELo407bmDv1rdYZ[] = {
/* columns rows colors chars-per-pixel */
"51 64 185 2 ",
"   c None",
".  c #5D0202",
"X  c #5E020C",
"o  c #5C0A08",
"O  c #530A0A",
"+  c #5D0916",
"@  c #630202",
"#  c #6A0503",
"$  c #6D0905",
"%  c #62040B",
"&  c #640C09",
"*  c #6C0C0A",
"=  c #640A05",
"-  c #720B06",
";  c #740E09",
":  c #73140D",
">  c #7B130B",
",  c #7E180F",
"<  c #6D0E11",
"1  c #6D1412",
"2  c #6D1B18",
"3  c #741613",
"4  c #751A14",
"5  c #7A1B15",
"6  c #7B1D19",
"7  c #771E19",
"8  c #66120D",
"9  c #7C211C",
"0  c #521A31",
"q  c #712D36",
"w  c #49294E",
"e  c #493156",
"r  c #413F70",
"t  c #4D3A61",
"y  c #684259",
"u  c #7B4855",
"i  c #50436A",
"p  c #4A4A78",
"a  c #684F6E",
"s  c #80170D",
"d  c #81190E",
"f  c #831D11",
"g  c #881F12",
"h  c #852217",
"j  c #8C2315",
"k  c #81251C",
"l  c #8B251A",
"z  c #82281F",
"x  c #8C2A1C",
"c  c #902616",
"v  c #922817",
"b  c #942B18",
"n  c #992E1A",
"m  c #9D311C",
"M  c #A1351E",
"N  c #832924",
"B  c #892D23",
"V  c #822F29",
"C  c #952C23",
"Z  c #8A3126",
"A  c #85312B",
"S  c #8B3429",
"D  c #913426",
"F  c #90362A",
"G  c #9B3D2E",
"H  c #95382C",
"J  c #8D3A33",
"K  c #84363A",
"L  c #933D32",
"P  c #983F31",
"I  c #A53720",
"U  c #A43A21",
"Y  c #AA3C23",
"T  c #A3342D",
"R  c #A73D34",
"E  c #954134",
"W  c #9A4434",
"Q  c #9E4837",
"!  c #94433A",
"~  c #9C4639",
"^  c #9D4A3C",
"/  c #97483F",
"(  c #AD4125",
")  c #AE452B",
"_  c #AF492D",
"`  c #B24326",
"'  c #B64729",
"]  c #B84729",
"[  c #B7482A",
"{  c #B8482A",
"}  c #A14D3D",
"|  c #A54433",
" . c #BB4F30",
".. c #B54B38",
"X. c #A4523F",
"o. c #AD563E",
"O. c #BB5235",
"+. c #BB5539",
"@. c #B4593F",
"#. c #B45237",
"$. c #C15C3C",
"%. c #9F4D41",
"&. c #93575B",
"*. c #A04D41",
"=. c #A45341",
"-. c #A3544B",
";. c #AB5B4A",
":. c #AB5644",
">. c #BA5C42",
",. c #A45C51",
"<. c #AE614C",
"1. c #B2634E",
"2. c #A86558",
"3. c #B26452",
"4. c #B46A54",
"5. c #BB6B5B",
"6. c #B76A5A",
"7. c #BB725A",
"8. c #8E6C7D",
"9. c #BD7662",
"0. c #DC5F54",
"q. c #CC5148",
"w. c #C36246",
"e. c #CA6A49",
"r. c #C2654B",
"t. c #C56D55",
"y. c #C4735B",
"u. c #D86E57",
"i. c #E4655A",
"p. c #E9695D",
"a. c #C47A63",
"s. c #F06F63",
"d. c #EC6C60",
"f. c #CA8265",
"g. c #C9856A",
"h. c #CD896D",
"j. c #C68065",
"k. c #D58765",
"l. c #DE906B",
"z. c #D18E70",
"x. c #D49375",
"c. c #D99777",
"v. c #DB9B7B",
"b. c #CA8E7A",
"n. c #E0926E",
"m. c #FE8075",
"M. c #FE8E7D",
"N. c #E19874",
"B. c #DEA07E",
"V. c #E9A37C",
"C. c #3A4A82",
"Z. c #525886",
"A. c #40619E",
"S. c #7E738F",
"D. c #6F7CA5",
"F. c #1E7AD4",
"G. c #6083B9",
"H. c #8497BC",
"J. c #D29983",
"K. c #E2A481",
"L. c #E5A985",
"P. c #E8AD88",
"I. c #EAAC86",
"U. c #FEA187",
"Y. c #FEA98C",
"T. c #F0AF86",
"R. c #ECB28C",
"E. c #F1B48C",
"W. c #EEBC9A",
"Q. c #F0B690",
"!. c #FEB291",
"~. c #F4BC94",
"^. c #FCBB94",
"/. c #F9C095",
"(. c #FAC399",
"). c #FEC99E",
"_. c #F6C19A",
"`. c #F6C6A3",
"'. c #FECBA0",
"]. c #FED0A3",
"[. c #FED1A8",
"{. c #A7B2CD",
"}. c #AAC3E1",
"|. c #E5D7D8",
" X c #F7F3F3",
/* pixels */
"                                                o O                                                   ",
"                                                L ^ O                                                 ",
"                                          N 3 * | r.;.7                                               ",
"                                        * :.3.| _ [ r.a.-.A &                                         ",
"                                        : _ >.w.{ { ' #.t.a.5.-.J 6 *                                 ",
"                                        7 #.' ' ] { ' ' [ [ +.t.a.a.6.L 1                             ",
"                                    * L 5.+.' ' ] ' ' ' ] ' ' ' .. .>.a.9.L 8                         ",
"                                  7 -.t.O.] ' ' ] ] ' ] ] [ ' ' ] { [ [ +.a.3.9                       ",
"                                z 3.w.' ` ' ' ' ' ' ' ' ' ' ] ' ] ] ' ' ( [ w.5.N                     ",
"                              9 1.O.` ' ' ' ' ' ' ' ' ' ' ' ' ' ] ] ' ' ' ' ' +.5.N                   ",
"                            1 ;. .' ' [ ' ' ' ' ' ' ' ' ' ' ] ] [ ] ] ' ] ] [ ` +.>.7                 ",
"                            ~ O.' ' ' ( M b c b m Y ' ' ' ' ] ( n c c l M ` [ [ ] +.} &               ",
"                          k +.] ' ' m x =.y.z.g.3.F b ( ] ` n Z 3.f.z.a.=.x m [ ] ] +.B               ",
"                          G [ ] [ n W B.).).].].'.Q.1.j ( j ;.R.'.'.'.'.'.K.~ v ' ] [ | &             ",
"                        1 ) [ ] m Q Q.'.).).).).).).).<., :.).'.'.(.'.'.'.'.~.=.v [ [ [ 5             ",
"                        g ] ] U S R.).).).).).).).).].P.9 K.'.(.'.'.'.(.(.'.'.Q.L m [ ] l             ",
"                        c { ] j h.'.).).).).).).).).).~.a.~.'.'.'.).'.'.).).).'.x.l ] [ n             ",
"                        n [ U P ~.).).).).).).).).).).).'.).(.'.).).).'.).).).).'.Q m [ I .           ",
"                1 ! %.7 m [ n 7.'.'.).).).).'.).).).).).'.).).).).).'.'.'.(.).).'.a.v ] M 5 *.J 1     ",
"              A J.`.'.3.n { v x.'.'.).).).I.v.E.).).).).).).).).).~.N.K.(.'.).).'.v.x ] m ;.`.`.J.N   ",
"            & b.[.).x.G n ] x K.'.).'.).9.y p y g.`.).).).).(.'.v.&.p t 2.W.'.).'.P.x [ m S v.'.[.b.* ",
"            J _.'.a.T R c ` x K.'.).'.x.a F.C.e q c.'.).).'.'.R.q w i F.Z.a.'.).'.R.l ` n T T h.).W.A ",
"            %.`.~.~ p.i.j ` x v.'.).).3.{.H.* @ % %.(.).).).'.7.X @ @ S.}.,.~.'.'.L.x [ g 0.i.^ ~.).! ",
"            S Q.E.R s.p.l Y c h.'.)./.;.|. XK @ @ 7 ~.).).'.(.! @ @ < |. X2.R.'.'.x.c Y j 0.d.R W.~.N ",
"        O 2 2 f.).:.q.u.H n n 1.'.).(.,.{.8.< @ @ 3 P.'.).'.~.S @ @ % &.{.&.E.'.].7.b m C 0...3.).a.* ",
"    o S X.X.E D z.B.^ n l > M G ~.'.'.4.D.e @ X @ 7 Q.'.).).(.! X @ @ 0 G.&.(.).(.W M > g b ^ V.x.Z   ",
"  o E #.( ( M j Z <.y.4.F > M j x.).'.B.u A.+ @ @ *.'.'.'.).).7.@ @ % C.a f.'.'.B.l M > A 4.a.1.z     ",
"  x _ ( ( n b n j j k k 5 ( m z h.'.'.).9.i t + 9 K.'.(.'.(.'.~.J X w i 2.(.).).x.B m ( f 7 3 *       ",
"= m ( ( M 4 ; * , m ( n j m E R.).).).).(.c.2.5.P.'.R.g.R.j.(.'.Q.9.2.h./.'.(.'.).R.~ m b             ",
": U ( ) b o       f ' m c x x.).).).).'.'.!.U.Y.^.'.(.Q.~.E.).).^.Y.U.Y.'.).).).).'.B.x c             ",
"4 m ) ( b         $ Y m , j K.).).).).).(.M.m.m.Y.'.(.'.[.v.L.'.Y.m.m.U.(.).'.).).'.R.l s             ",
"; ( ( ) ( :         m ` s > a.).).).).).(.^.Y.!.(.'.(.a.7.X.P.'.(.!.Y.^.(.).).).).'.g.d -             ",
"& m ) Y ' c         n ] M - z L.'.'.).).).).).).).'.).P.h.L.).).'.'.'.).).(.'.'.'.R.Z $               ",
"  , M ( U l .     # I ' ` s @ S B.(.].'.).).).].).).).).].).).).'.(.).'.).'.'.(.K.H .                 ",
"  = s n m :       - Y ] ` >     9 X.z.R.(.).).).).).).).).).).).'.'.'.'.).R.z.;.9                     ",
"    # > - =       f ` ] M -         $ h Q 4.h.B.R.~./.(.(././.~.P.K.h.3.E k o                         ",
"                  j ] ] j           # m Y n c x l D H E W E D Z x x c m j                             ",
"                $ M [ Y >           - ( [ ' ' ' [ ( ( O.@.@. .( ( ] ] [ M =                           ",
"                > Y [ n #           j ` ' ' [ [ ] w.t.X.E Z S D v U ] ] ` >                           ",
"                j ] ] f             m [ ' ( ' ' +.X.x b c B v.~.7.b [ ` ` g           * E 9           ",
"                m ] Y ;           $ M { ` j m n h m ` ' c g.].L.L 7.e.[ { v         : 3 a.c.1         ",
"              - U ] M #           > ( ] [ M j c ( ' ] ( x I.).(.x.%.f.O.] n .   j j X.v.L.L.5         ",
"              > ( ] n           @ , ` ] [ [ ` [ ' ' ' ( S ~.].R.f.} c.e.' m > M { M x L.].g.@         ",
"              > ` ] n           # j ] ] ' [ [ ` ' ' [ ( x x.R.v.Q K.(.k.' M g ' ` z g.).'.^           ",
"              ; Y { M #         > d ` ] ' ' ' ' ' ' ` Y h E =.g.=.L.].l.' M d ' ` c Q g.z.:           ",
"              # m [ ` >       - j > m ( ` ' ' ` ( Y m m > X.a.^ Q Q.).B.' M d ' ' [ M h 5             ",
"                s ( [ m #     s M , j m m M M M m m b , Q R.)./._.).].l.' M d ' ` M c                 ",
"                $ n ` [ c #   l Y c > j m m m n c , h <.R.).).).).).).u.' m > b f                     ",
"                  > m Y ` n ; b ] m c , > > > 5 S ;.c./.).).).).).).^.$.` n                           ",
"                    > n I ` b j ] ` M U n n n @.L.~.).).).).).).).).n.[ [ j                           ",
"                      - j n b s ( [ [ ` ] ` [  .V.'.).).).).).).).E.$.[ [ ,                           ",
"                        # ; s - m ] ] ] ` [ [ ` $.V.).).).).).).E.e.[ [ Y $                           ",
"                              @ > Y ` ] ' ' ' ' ` O.k.T././.E.n.$.[ [ [ m .                           ",
"                                . j M { ' ' ' ' { M Y [ $.$.O.` Y ` ] ] j                             ",
"                                  # j ( ' ' ' ' ] j g j j g g d j ` ] ` >                             ",
"                                    $ U ' ' ] ] ` >     # d j n ( ] ` M #                             ",
"                                    $ M [ [ ] ] ` ,     - m M ` [ ' [ j                               ",
"                                    $ M ] [ ] [ ` >     # b ` { ' ' ` s                               ",
"                                    # m [ [ { [ Y -     # b ` [ ' ] M $                               ",
"                                      s m m M M b         j Y m M ( n                                 ",
"                                  3 F ^ ;.<.;.} x #     @ 5 H W Q E Z 4                               ",
"                                # =.v.V./.[.'.P.x.Q     =.c.~.).).~.B.x.E #                           ",
"                                # Z N a.R.v.4.z 9 9     S S W h.R.~.7.E S @                           ",
"                                      k z 3                   * B L S #                               "
};
