/* XPM */
static char *result[] = {
/* columns rows colors chars-per-pixel */
"64 64 15 1 ",
"  c #29333D",
". c #344950",
"X c #D4E483",
"o c #6C512F",
"O c #3B2E24",
"+ c #241E1B",
"@ c #3C3129",
"# c #93AF5F",
"$ c #517C45",
"% c #F4AE59",
"& c #0D131B",
"* c #142329",
"= c #284232",
"- c #6B8E5F",
"; c white",
/* pixels */
" ................    ..XX................ooooOO++......XX....@@o",
".XX..##....$$..##..  $$XX##....$$XX......ooooOO##....$$XX##..++$",
".XX..##....$$..##..  $$XX##....$$XX......ooooOO##....$$XX##..++$",
"$XX..##XX$$..XX##..##$$XX##$$##$$XX..##..$$ooXX##..##$$XX##$$##$",
"$XX..##XX$$..XX##..##$$XX##$$##$$XX..##..$$ooXX##..##$$XX##$$##$",
"$XX##$$%%$$XXXX##XX##XXXX##XX##XXXX####%%$$XXXX##XX##XXXX##XX##X",
"$XX##$$%%$$XXXX##XX##XXXX##XX##XXXX####%%$$XXXX##XX##XXXX##XX##X",
"X##XX%%$$%%$$$$####$$##XX$$##XX####$$%%$$%%$$$$####$$##XX$$##XX#",
"X##XX%%$$%%$$$$####$$##XX$$##XX####$$%%$$%%$$$$####$$##XX$$##XX#",
"#XX##$$%%$$$$####$$##$$########$$######%%$$$$####$$##$$########$",
"#XX##$$%%$$$$####$$##$$########$$######%%$$$$####$$##$$########$",
"X##$$##$$$$$$######$$$$$$##$$$$##$$$$##$$$$$$######$$$$$$##$$$$#",
"X##$$##$$$$$$######$$$$$$##$$$$##$$$$##$$$$$$######$$$$$$##$$$$#",
"#$$$$$$##$$&&$$##$$$$&&$$$$##$$$$$$&&$$##$$&&$$##$$$$&&$$$$##$$$",
"#$$$$$$##$$&&$$##$$$$&&$$$$##$$$$$$&&$$##$$&&$$##$$$$&&$$$$##$$$",
"$&&$$&&$$&&&&$$$$$$&&$$&&$$&&$$&&$$$$&&$$&&&&$$$$$$&&$$&&$$&&$$&",
"$&&$$&&$$&&&&$$$$$$&&$$&&$$&&$$&&$$$$&&$$&&&&$$$$$$&&$$&&$$&&$$&",
"&$$&&&&$$&&&&$$&&******&&$$&&&&&&$$&&&&$$****$$&&**&&&&&&$$&&&&&",
"&$$&&&&$$&&&&$$&&******&&$$&&&&&&$$&&&&$$****$$&&**&&&&&&$$&&&&&",
"&&&&&&&&&****&&**$$$$==**&&****&&&&****&&====******&&**&&&&&&**&",
"&&&&&&&&&****&&**$$$$==**&&****&&&&****&&====******&&**&&&&&&**&",
"&&&&&&&**##$$$$$$$$##==&&**====**&&&&&&&&**$$$$==**&&******&&==*",
"&&&&&&&**##$$$$$$$$##==&&**====**&&&&&&&&**$$$$==**&&******&&==*",
"*&&**==$$$$$$$$$$##==**&&&&**&&&&**==============**&&&&&&==**$$*",
"*&&**==$$$$$$$$$$##==**&&&&**&&&&**==============**&&&&&&==**$$*",
"&&&==##$$$$$$$$##==****$$==&&&&&&====$$$$$$$$====**&&&&&&==&&**&",
"&&&==##$$$$$$$$##==****$$==&&&&&&====$$$$$$$$====**&&&&&&==&&**&",
"&&&==##########====****==**&&&&&&==$$$$$$$$$$##==**&&&&&&**&&&&&",
"&&&==##########====****==**&&&&&&==$$$$$$$$$$##==**&&&&&&**&&&&&",
"*&&**==####$$====****&&&&&&&&&&&&==$$$$$$$$$$##********&&&&&&==*",
"*&&**==####$$====****&&&&&&&&&&&&==$$$$$$$$$$##********&&&&&&==*",
"=**&&**==========****&&&&&&&&&&****$$$$$$$$##==**$$$$==**&&&&**=",
"=**&&**==========****&&&&&&&&&&****$$$$$$$$##==**$$$$==**&&&&**=",
"=**&&&&**********&&&&&&&&&&&&&&****==######==****======**&&&&&&=",
"=**&&&&**********&&&&&&&&&&&&&&****==######==****======**&&&&&&=",
"*&&&&****&&&&&&&&&&&&&&&&&&&&&&&&****========**********&&&&&&&&*",
"*&&&&****&&&&&&&&&&&&&&&&&&&&&&&&****========**********&&&&&&&&*",
"&****==****&&**&&&&&&&&&&&&&&&&&&&&****======******&&&&&&&&&&&&&",
"&****==****&&**&&&&&&&&&&&&&&&&&&&&****======******&&&&&&&&&&&&&",
"*==$$$$$$====$$**&&&&&&&&&&&&&&&&&&********==******&&&&&&&&&&&&&",
"*==$$$$$$====$$**&&&&&&&&&&&&&&&&&&********==******&&&&&&&&&&&&&",
"&**==$$$$##====**&&&&&&&&&&&&&&****&&&&$$==**==**&&&&&&&&&&&&&&&",
"&**==$$$$##====**&&&&&&&&&&&&&&****&&&&$$==**==**&&&&&&&&&&&&&&&",
"***==$$##$$****&&&&&&&&&&&&&&&&**==**&&==********&&&&&&&&&&&&&&&",
"***==$$##$$****&&&&&&&&&&&&&&&&**==**&&==********&&&&&&&&&&&&&&&",
"===**##******&&&&&&&&&&&&&&&&&&**$$**&&&&&&****$$==&&&&&&&&&&&&&",
"===**##******&&&&&&&&&&&&&&&&&&**$$**&&&&&&****$$==&&&&&&&&&&&&&",
"$##%%****XX&&##**====**&&&&&&&&&&**&&&&&&&&&&**==**&&&&&&&&&&&&&",
"$##%%****XX&&##**====**&&&&&&&&&&**&&&&&&&&&&**==**&&&&&&&&&&&&&",
"=%%$$%%$$XX####XXXX====**&&&&&&&&&&&&&&&&&&&&&&&&&&&&&&&&&&&&&&&",
"=%%$$%%$$XX####XXXX====**&&&&&&&&&&&&&&&&&&&&&&&&&&&&&&&&&&&&&&&",
"*==%%$$**%%$$XXXX$$$$==**&&&&&&&&&&&&&&&&&&&&&&&&&&&&&&&&&&&&&&&",
"*==%%$$**%%$$XXXX$$$$==**&&&&&&&&&&&&&&&&&&&&&&&&&&&&&&&&&&&&&&&",
"=**$$##%%$$%%$$$$$$$$==&&&&&&&&&&&&&&&&&&&&&&&&&&&&&&&&&&&&&&&&&",
"=**$$##%%$$%%$$$$$$$$==&&&&&&&&&&&&&&&&&&&&&&&&&&&&&&&&&&&&&&&&&",
"-##$$XX$$%%XX$$$$====**&&&&&&&&&&&&&&&&&&&&&&&&&&&&&&&&&&&&&&&&&",
"-##$$XX$$%%XX$$$$====**&&&&&&&&&&&&&&&&&&&&&&&&&&&&&&&&&&&&&&&&&",
"#$$XX####$$##$$====****$$==&&&&&&&&&&&&&&&&&&&&&&&&&&&&&&&&&&&&&",
"#$$XX####$$##$$====****$$==&&&&&&&&&&&&&&&&&&&&&&&&&&&&&&&&&&&&&",
"=%%==########======****==**&&&&&&&&&&&&&&&&&&&&&&&&&&&&&&&&&&&&&",
"=%%==########======****==**&&&&&&&&&&&&&&&&&&&&&&&&&&&&&&&&&&&&&",
"%==%%==####$$====****&&&&&&&&&&&&&&&&&&&&&&&&&&&&&&&&&&&&&&&&&&&",
"%==%%==####$$====****&&&&&&&&&&&&&&&&&&&&&&&&&&&&&&&&&&&&&&&&&&&",
"=%%==**==========****&&&&&&&&&&&&&&&&&&&&&&&&&&&&&&&&&&&&&&&&&&&"
};
